<svg xmlns="http://www.w3.org/2000/svg" fill="none" viewBox="43.05 265.49 632.95 411.33">
<path d="M339.522 453.783H48.4401C47.011 453.782 45.6409 453.274 44.6304 452.371C43.6199 451.468 43.0515 450.243 43.0498 448.966V384.445C43.0515 383.168 43.6199 381.943 44.6304 381.04C45.6409 380.137 47.011 379.629 48.4401 379.628H339.522C340.951 379.629 342.322 380.137 343.332 381.04C344.343 381.943 344.911 383.168 344.913 384.445V448.967C344.911 450.244 344.342 451.468 343.332 452.371C342.321 453.274 340.951 453.782 339.522 453.783ZM48.4401 381.555C47.5825 381.555 46.7603 381.86 46.154 382.402C45.5476 382.944 45.2065 383.678 45.2057 384.445V448.967C45.2065 449.734 45.5476 450.468 46.154 451.01C46.7603 451.552 47.5825 451.857 48.4401 451.857H339.522C340.38 451.857 341.202 451.552 341.809 451.01C342.415 450.468 342.756 449.734 342.757 448.967V384.445C342.756 383.678 342.415 382.944 341.809 382.402C341.202 381.86 340.38 381.555 339.522 381.555H48.4401Z" fill="#E6E6E6"/>
<path d="M86.1718 436.936C98.6753 436.936 108.811 427.878 108.811 416.705C108.811 405.532 98.6753 396.475 86.1718 396.475C73.6683 396.475 63.5322 405.532 63.5322 416.705C63.5322 427.878 73.6683 436.936 86.1718 436.936Z" fill="#E6E6E6"/>
<path d="M138.459 403.219C137.469 403.233 136.525 403.595 135.831 404.226C135.137 404.856 134.748 405.706 134.748 406.59C134.748 407.475 135.137 408.324 135.831 408.955C136.525 409.586 137.469 409.947 138.459 409.962H316.342C317.343 409.979 318.31 409.64 319.032 409.02C319.753 408.4 320.169 407.55 320.188 406.655C320.207 405.761 319.828 404.897 319.134 404.252C318.441 403.608 317.489 403.236 316.488 403.219L316.466 403.219C316.425 403.218 316.384 403.218 316.342 403.219H138.459Z" fill="#E6E6E6"/>
<path d="M138.459 423.449C137.469 423.464 136.525 423.826 135.831 424.456C135.137 425.087 134.748 425.936 134.748 426.821C134.748 427.706 135.137 428.555 135.831 429.185C136.525 429.816 137.469 430.178 138.459 430.193H316.342C317.341 430.205 318.305 429.863 319.022 429.241C319.739 428.619 320.151 427.769 320.168 426.876C320.184 425.983 319.804 425.121 319.11 424.479C318.416 423.836 317.465 423.466 316.466 423.449C316.425 423.449 316.384 423.449 316.342 423.449H138.459Z" fill="#E6E6E6"/>
<path d="M328.032 430.549C351.029 430.549 369.672 413.89 369.672 393.34C369.672 372.79 351.029 356.13 328.032 356.13C305.035 356.13 286.393 372.79 286.393 393.34C286.393 413.89 305.035 430.549 328.032 430.549Z" fill="white"/>
<path d="M313.571 410.08C313.499 410.08 313.428 410.08 313.356 410.078H290.975C288.135 410.038 285.426 409.002 283.434 407.194C281.441 405.385 280.323 402.949 280.322 400.411C280.321 397.873 281.436 395.436 283.428 393.627C285.419 391.817 288.126 390.779 290.966 390.736H313.366C313.476 390.735 313.596 390.735 313.714 390.736C316.571 390.772 319.297 391.815 321.296 393.639C323.296 395.462 324.408 397.919 324.389 400.472C324.37 403.025 323.222 405.468 321.195 407.268C319.169 409.068 316.428 410.079 313.571 410.08Z" fill="#6C63FF"/>
<path d="M676 674.736H338.684V676.82H676V674.736Z" fill="#3F3D56"/>
<path d="M359.466 498.352C359.201 497.984 358.981 497.591 358.81 497.181L353.435 484.319C352.809 482.817 352.876 481.154 353.621 479.696C354.365 478.237 355.727 477.102 357.407 476.54L477.374 436.51C479.055 435.951 480.916 436.01 482.548 436.676C484.18 437.341 485.45 438.558 486.079 440.059L491.454 452.922C491.765 453.665 491.909 454.457 491.877 455.25C491.846 456.044 491.64 456.824 491.271 457.546C490.902 458.269 490.378 458.919 489.728 459.46C489.077 460.002 488.314 460.423 487.482 460.701L367.516 500.73C366.072 501.212 364.487 501.239 363.023 500.806C361.559 500.374 360.304 499.508 359.466 498.352Z" fill="#6C63FF"/>
<path d="M476.992 433.186L428.208 450.57C426.67 450.983 425.37 451.909 424.577 453.156C423.784 454.403 423.558 455.875 423.947 457.267L429.608 477.523C429.832 478.323 430.251 479.069 430.836 479.707C431.421 480.345 432.157 480.859 432.99 481.213C433.824 481.566 434.735 481.751 435.658 481.752C436.581 481.753 437.493 481.572 438.328 481.22L487.247 460.645C488.797 460.125 490.053 459.078 490.741 457.733C491.428 456.387 491.491 454.853 490.916 453.466L485.036 436.466C484.454 435.079 483.281 433.954 481.773 433.339C480.265 432.724 478.545 432.669 476.992 433.186Z" fill="#2F2E41"/>
<path d="M566.27 559.383C564.739 559.54 563.193 559.225 561.888 558.491C560.584 557.757 559.599 556.647 559.095 555.345L517.337 447.17C517.047 446.419 516.925 445.625 516.979 444.832C517.033 444.04 517.261 443.264 517.65 442.551C518.039 441.837 518.582 441.198 519.247 440.672C519.912 440.145 520.687 439.741 521.527 439.482L536.052 435.005C537.748 434.483 539.607 434.584 541.22 435.286C542.833 435.988 544.068 437.234 544.654 438.749L586.413 546.925C586.996 548.441 586.882 550.102 586.097 551.543C585.311 552.985 583.918 554.088 582.223 554.613L567.698 559.09C567.235 559.233 566.757 559.331 566.27 559.383Z" fill="#6C63FF"/>
<path d="M547.767 436.898L563.794 481.591C564.415 482.914 564.443 484.399 563.871 485.74C563.299 487.08 562.171 488.172 560.722 488.789L539.631 497.772C538.798 498.127 537.887 498.313 536.964 498.315C536.042 498.318 535.129 498.138 534.294 497.788C533.458 497.438 532.719 496.927 532.131 496.292C531.543 495.656 531.119 494.912 530.891 494.113L517.535 447.296C516.998 445.897 517.103 444.365 517.827 443.035C518.551 441.705 519.836 440.686 521.399 440.2L539.818 433.439C541.386 432.957 543.103 433.05 544.593 433.699C546.084 434.348 547.225 435.498 547.767 436.898Z" fill="#2F2E41"/>
<path d="M499.24 675.349H483.876C482.082 675.347 480.362 674.709 479.094 673.576C477.825 672.442 477.111 670.906 477.109 669.302V554.871C477.111 553.268 477.825 551.731 479.094 550.597C480.362 549.464 482.082 548.826 483.876 548.824H499.24C501.034 548.826 502.754 549.464 504.023 550.597C505.291 551.731 506.005 553.268 506.007 554.871V669.302C506.005 670.906 505.291 672.442 504.023 673.576C502.754 674.709 501.034 675.347 499.24 675.349Z" fill="#2F2E41"/>
<path d="M529.629 675.349H514.265C512.471 675.347 510.751 674.709 509.482 673.576C508.214 672.442 507.5 670.906 507.498 669.302V554.871C507.5 553.268 508.214 551.731 509.482 550.597C510.751 549.464 512.471 548.826 514.265 548.824H529.629C531.423 548.826 533.143 549.464 534.412 550.597C535.68 551.731 536.394 553.268 536.396 554.871V669.302C536.394 670.906 535.68 672.442 534.412 673.576C533.143 674.709 531.423 675.347 529.629 675.349Z" fill="#2F2E41"/>
<path d="M542.292 568.324H472.48C470.548 568.322 468.696 567.635 467.33 566.414C465.964 565.194 465.196 563.539 465.193 561.812V460.469C465.193 450.47 469.639 440.88 477.551 433.809C485.464 426.738 496.196 422.766 507.386 422.766C518.576 422.766 529.308 426.738 537.221 433.809C545.134 440.88 549.579 450.47 549.579 460.469V561.812C549.577 563.539 548.809 565.194 547.442 566.414C546.076 567.635 544.224 568.322 542.292 568.324Z" fill="#CCCCCC"/>
<path d="M552.8 593.114H517.406V414.366L518.064 414.526C528.032 416.971 536.827 422.271 543.102 429.611C549.376 436.952 552.783 445.929 552.8 455.166V593.114Z" fill="#2F2E41"/>
<path d="M494.49 593.114H459.096V455.166C459.113 445.929 462.52 436.952 468.794 429.611C475.069 422.271 483.864 416.972 493.832 414.526L494.49 414.366V593.114Z" fill="#2F2E41"/>
<path d="M506.858 401.803C537.627 401.803 562.571 379.513 562.571 352.018C562.571 324.522 537.627 302.233 506.858 302.233C476.088 302.233 451.145 324.522 451.145 352.018C451.145 379.513 476.088 401.803 506.858 401.803Z" fill="#6C63FF"/>
<path d="M569.846 340.556C569.846 340.556 572.969 263.347 532.37 288.463C532.37 288.463 508.948 218.231 451.693 323.347L435.037 338.23C435.037 338.23 509.989 328.928 579.736 357.765L569.846 340.556Z" fill="#2F2E41"/>
<path d="M507.707 376.673C504.266 376.588 499.983 376.481 496.683 374.327C495.701 373.66 494.894 372.808 494.318 371.832C493.743 370.856 493.413 369.78 493.352 368.678C493.292 367.895 493.436 367.11 493.772 366.385C494.108 365.66 494.627 365.015 495.289 364.498C497.012 363.197 499.529 362.892 502.241 363.604L499.431 345.255L501.493 345.002L504.797 366.574L503.074 365.868C501.077 365.049 498.336 364.633 496.633 365.919C496.214 366.256 495.888 366.673 495.68 367.141C495.472 367.608 495.387 368.112 495.433 368.613C495.483 369.433 495.731 370.233 496.158 370.96C496.586 371.687 497.184 372.323 497.911 372.825C500.479 374.501 503.893 374.717 507.765 374.814L507.707 376.673Z" fill="#2F2E41"/>
<path d="M489.23 346.837H478.017V348.698H489.23V346.837Z" fill="#2F2E41"/>
<path d="M524.624 346.837H513.411V348.698H524.624V346.837Z" fill="#2F2E41"/>
<path d="M382.64 503.098C381.137 503.721 379.419 503.785 377.864 503.276C376.308 502.767 375.043 501.727 374.345 500.384L338.42 431.19C337.723 429.847 337.651 428.312 338.221 426.922C338.79 425.533 339.955 424.402 341.457 423.779C342.96 423.156 344.678 423.092 346.233 423.601C347.788 424.11 349.054 425.15 349.751 426.492L385.677 495.686C386.374 497.029 386.446 498.564 385.876 499.954C385.307 501.344 384.143 502.475 382.64 503.098Z" fill="#3F3D56"/>
<path d="M345.729 428.644C344.625 428.644 343.566 428.252 342.785 427.554C342.004 426.857 341.565 425.91 341.565 424.923V377.526H289.516C288.411 377.526 287.352 377.134 286.571 376.436C285.79 375.738 285.352 374.792 285.352 373.805C285.352 372.818 285.79 371.871 286.571 371.174C287.352 370.476 288.411 370.084 289.516 370.084H345.729C346.834 370.084 347.893 370.476 348.674 371.174C349.455 371.871 349.893 372.818 349.893 373.805V424.923C349.893 425.91 349.455 426.857 348.674 427.554C347.893 428.252 346.834 428.644 345.729 428.644Z" fill="#6C63FF"/>
<path d="M346.714 433.904C337.75 437.621 327.753 438.879 317.988 437.518C308.223 436.158 299.129 432.241 291.856 426.262C284.582 420.283 279.456 412.511 277.126 403.929C274.795 395.347 275.365 386.34 278.763 378.048C282.161 369.755 288.235 362.549 296.216 357.341C304.197 352.133 313.727 349.156 323.601 348.788C333.476 348.42 343.25 350.676 351.689 355.272C360.128 359.868 366.852 366.597 371.012 374.608C376.573 385.352 377.139 397.629 372.584 408.746C368.029 419.862 358.725 428.91 346.714 433.904ZM309.912 363.022C303.189 365.81 297.541 370.316 293.684 375.972C289.826 381.628 287.932 388.179 288.241 394.796C288.55 401.414 291.048 407.801 295.42 413.15C299.791 418.499 305.839 422.569 312.799 424.847C319.759 427.124 327.319 427.506 334.522 425.944C341.725 424.382 348.248 420.947 353.266 416.072C358.284 411.198 361.572 405.103 362.713 398.558C363.855 392.014 362.799 385.314 359.68 379.306C355.488 371.256 347.894 365.021 338.564 361.968C329.234 358.916 318.93 359.295 309.912 363.022Z" fill="#3F3D56"/>
</svg>