<svg width="28" height="28" viewBox="0 0 28 28" fill="none" xmlns="http://www.w3.org/2000/svg">
<path d="M4.2 0H25.2C25.9426 0 26.6548 0.327777 27.1799 0.911223C27.705 1.49467 28 2.28599 28 3.11111V7.77778C28 8.6029 27.705 9.39422 27.1799 9.97767C26.6548 10.5611 25.9426 10.8889 25.2 10.8889H22.4V15.5556C22.4 17.2058 21.81 18.7884 20.7598 19.9553C19.7096 21.1222 18.2852 21.7778 16.8 21.7778H8.4C6.91479 21.7778 5.49041 21.1222 4.4402 19.9553C3.39 18.7884 2.8 17.2058 2.8 15.5556V1.55556C2.8 1.143 2.9475 0.747335 3.21005 0.455612C3.4726 0.163888 3.8287 0 4.2 0ZM22.4 3.11111V7.77778H25.2V3.11111H22.4ZM0 24.8889H25.2V28H0V24.8889Z" fill="black"/>
</svg>