<svg width="180" height="180" viewBox="0 0 180 180" fill="none" xmlns="http://www.w3.org/2000/svg">
<path d="M113.456 106.875L98.8875 121.444L106.875 129.375L129.375 106.875L106.875 84.375L98.8875 92.3062L113.456 106.875ZM66.5437 106.875L81.1125 92.3062L73.125 84.375L50.625 106.875L73.125 129.375L81.1125 121.444L66.5437 106.875Z" fill="black"/>
<path d="M50.625 50.625C53.7316 50.625 56.25 48.1066 56.25 45C56.25 41.8934 53.7316 39.375 50.625 39.375C47.5184 39.375 45 41.8934 45 45C45 48.1066 47.5184 50.625 50.625 50.625Z" fill="black"/>
<path d="M33.75 50.625C36.8566 50.625 39.375 48.1066 39.375 45C39.375 41.8934 36.8566 39.375 33.75 39.375C30.6434 39.375 28.125 41.8934 28.125 45C28.125 48.1066 30.6434 50.625 33.75 50.625Z" fill="black"/>
<path d="M157.5 22.5H22.5C16.2956 22.5 11.25 27.5512 11.25 33.75V146.25C11.25 152.454 16.2956 157.5 22.5 157.5H157.5C163.704 157.5 168.75 152.454 168.75 146.25V33.75C168.75 27.5512 163.704 22.5 157.5 22.5ZM157.5 33.75V56.25H22.5V33.75H157.5ZM22.5 146.25V67.5H157.5V146.25H22.5Z" fill="black"/>
</svg>
