<svg width="180" height="180" viewBox="0 0 180 180" fill="none" xmlns="http://www.w3.org/2000/svg">
<path d="M30 60V45C30 41.0218 31.5804 37.2064 34.3934 34.3934C37.2064 31.5804 41.0218 30 45 30H60M30 120V135C30 138.978 31.5804 142.794 34.3934 145.607C37.2064 148.42 41.0218 150 45 150H60M120 30H135C138.978 30 142.794 31.5804 145.607 34.3934C148.42 37.2064 150 41.0218 150 45V60M120 150H135C138.978 150 142.794 148.42 145.607 145.607C148.42 142.794 150 138.978 150 135V120M67.5 75H67.575M112.5 75H112.575M71.25 112.875C73.6941 110.381 76.6114 108.399 79.831 107.046C83.0505 105.693 86.5077 104.996 90 104.996C93.4923 104.996 96.9495 105.693 100.169 107.046C103.389 108.399 106.306 110.381 108.75 112.875" stroke="black" stroke-width="5" stroke-linecap="round" stroke-linejoin="round"/>
</svg>
