<svg width="180" height="180" viewBox="0 0 180 180" fill="none" xmlns="http://www.w3.org/2000/svg">
<path d="M109.875 37.336L99.315 75.511C100.353 76.465 108.461 42.9594 109.871 42.9594C111.281 42.9594 112.639 42.43 113.678 41.476L109.875 37.336ZM99.315 75.511C99.315 62.311 96.855 57.3171 92.685 52.4796C88.38 47.4921 78 52.906 78 49.4035H66.75C66.75 57.031 71.085 64.0585 75.9225 69.661C80.895 75.421 87.18 80.5885 92.685 84.601L99.315 75.511ZM78 49.4035C78 41.461 71.2275 57.9676 75.9225 56.3926C80.8125 54.7426 92.025 68.806 99.315 75.511L113.678 33.196C104.1 24.391 92.655 21.451 83.01 24.691C73.1625 28.006 66.75 37.261 66.75 49.4035H78ZM127.065 84.601C132.57 80.596 138.855 75.421 143.828 69.661C148.665 64.0585 153 57.031 153 49.4035L107.132 52.4796C58.0673 59.4688 102.188 56.9052 97.875 61.8927C93.705 66.7302 97.86 71.7385 92.685 75.511L127.065 84.601ZM153 49.4035C153 37.261 146.588 28.006 136.748 24.691C127.103 21.451 115.65 24.391 106.073 33.196L113.685 41.476C120.975 34.771 87.795 47.7535 92.685 49.4035C97.3725 50.9785 107.132 44.5371 107.132 52.4796L153 49.4035ZM92.685 84.601C98.3475 88.726 102.84 92.236 109.875 92.236L113.685 59.2546C110.948 59.2546 105.638 80.1235 99.315 75.511L92.685 84.601ZM120.435 75.511C114.113 80.1235 116.423 59.2546 113.685 59.2546L109.875 92.236C116.91 92.236 121.403 88.7335 127.065 84.601L120.435 75.511Z" fill="#6C63FF"/>
<path d="M37.5 152.91H54.45C62.025 152.91 69.6975 153.705 77.07 155.22C90.2325 157.924 103.776 158.224 117.045 156.105C123.555 155.055 129.945 153.443 135.735 150.653C140.955 148.125 147.352 144.578 151.65 140.595C155.94 136.62 160.41 130.118 163.575 125.033C166.305 120.668 164.985 115.32 160.68 112.073C158.261 110.313 155.346 109.365 152.355 109.365C149.364 109.365 146.449 110.313 144.03 112.073L130.477 122.31C125.227 126.285 119.49 129.938 112.657 131.025C111.832 131.153 110.97 131.273 110.07 131.378M110.07 131.378C109.795 131.409 109.52 131.439 109.245 131.468M110.07 131.378C111.27 131.053 112.371 130.434 113.272 129.578C114.403 128.6 115.326 127.406 115.987 126.065C116.648 124.725 117.034 123.266 117.122 121.774C117.21 120.283 116.998 118.788 116.5 117.38C116.001 115.971 115.225 114.676 114.218 113.573C113.24 112.488 112.102 111.559 110.843 110.82C89.865 98.3025 57.2175 107.835 37.5 121.823M110.07 131.378C109.799 131.437 109.522 131.467 109.245 131.468M109.245 131.468C104.722 131.922 100.165 131.932 95.64 131.498" stroke="black" stroke-width="1.5" stroke-linecap="round"/>
<path d="M37.5 116.25C37.5 110.037 32.4632 105 26.25 105C20.0368 105 15 110.037 15 116.25V153.75C15 159.963 20.0368 165 26.25 165C32.4632 165 37.5 159.963 37.5 153.75V116.25Z" stroke="black" stroke-width="1.5"/>
</svg>
