<svg width="180" height="180" viewBox="0 0 180 180" fill="none" xmlns="http://www.w3.org/2000/svg">
<path d="M90 15C80.1509 15 70.3982 16.9399 61.2987 20.709C52.1993 24.4781 43.9314 30.0026 36.967 36.967C22.9018 51.0322 15 70.1088 15 90C15 123.15 36.525 151.275 66.3 161.25C70.05 161.85 71.25 159.525 71.25 157.5V144.825C50.475 149.325 46.05 134.775 46.05 134.775C42.6 126.075 37.725 123.75 37.725 123.75C30.9 119.1 38.25 119.25 38.25 119.25C45.75 119.775 49.725 126.975 49.725 126.975C56.25 138.375 67.275 135 71.55 133.2C72.225 128.325 74.175 125.025 76.275 123.15C59.625 121.275 42.15 114.825 42.15 86.25C42.15 77.925 45 71.25 49.875 65.925C49.125 64.05 46.5 56.25 50.625 46.125C50.625 46.125 56.925 44.1 71.25 53.775C77.175 52.125 83.625 51.3 90 51.3C96.375 51.3 102.825 52.125 108.75 53.775C123.075 44.1 129.375 46.125 129.375 46.125C133.5 56.25 130.875 64.05 130.125 65.925C135 71.25 137.85 77.925 137.85 86.25C137.85 114.9 120.3 121.2 103.575 123.075C106.275 125.4 108.75 129.975 108.75 136.95V157.5C108.75 159.525 109.95 161.925 113.775 161.25C143.55 151.2 165 123.15 165 90C165 80.1509 163.06 70.3982 159.291 61.2987C155.522 52.1993 149.997 43.9314 143.033 36.967C136.069 30.0026 127.801 24.4781 118.701 20.709C109.602 16.9399 99.8491 15 90 15Z" fill="black"/>
</svg>
