<svg width="559" height="432" viewBox="0 0 559 432" fill="none" xmlns="http://www.w3.org/2000/svg">
<g clip-path="url(#clip0_32_212)">
<path d="M375.527 98.1247C375.527 98.1247 345.985 101.535 344.081 148.329C342.495 187.322 339.248 209.056 354.755 217.189C360.3 220.096 366.816 220.35 372.739 218.364L436.047 197.072C436.047
197.072 437.001 126.882 415.08 109.822C393.16 92.7616 375.533 98.1247 375.533 98.1247H375.527Z" fill="#2F2E41"/>
<path d="M410.426 205.69L378.386 216.466V169.29H407.454L410.426 205.69Z" fill="#F6A6A9"/>
<path d="M453.587 331.105C449.272 332.892 444.871 334.498 440.389 335.91C437.017 336.981 433.598 337.935 430.14 338.785C417.524 341.897 404.347 343.541 390.803 343.541C386.995 343.541 383.219
343.414 379.481 343.155C375.657 342.896 371.87 342.504 368.127 341.98C366.606 341.77 365.095 341.544 363.591 341.29C359.302 340.578 355.063 339.69 350.888 338.647C349.48 338.3 348.078 337.93
346.681 337.533C346.201 337.406 345.721 337.268 345.246 337.13C343.277 336.562 341.319 335.96 339.377 335.315C339.248 335.276 339.113 335.232 338.984 335.188C337.247 334.614 335.521 334.007 333.806
333.372C332.263 332.804 330.731 332.208 329.205 331.59L362.49 219.523L363.876 214.86L368.796 198.302L368.833 198.17L368.871 198.048H427.001L427.389 199.985L436.92 247.679L443.787 282.053L450.54
315.837L453.318 329.742L453.587 331.105Z" fill="#DDDEDF"/>
<path d="M378.041 198.076L374.13 214.645L373.585 216.968L373.3 218.176L355.953 291.731L345.246 337.13C343.277 336.562 341.319 335.96 339.377 335.315C339.248 335.276 339.113 335.232 338.984
335.188C337.247 334.614 335.521 334.007 333.806 333.372C332.263 332.804 330.731 332.208 329.205 331.59C323.886 329.444 318.703 327.022 313.67 324.351C324.906 267.465 336.184 211.533 338.018
206.849C338.822 204.791 341.071 203.213 344.119 201.999C344.998 201.646 345.947 201.326 346.945 201.033C353.488 199.124 362.22 198.423 368.769 198.175H368.833C371.444 198.081 373.704 198.054
375.333 198.054C376.962 198.054 378.041 198.081 378.041 198.081V198.076Z" fill="#DDDEDF"/>
<path d="M382.35 182.351C399.983 182.351 414.277 167.729 414.277 149.692C414.277 131.655 399.983 117.033 382.35 117.033C364.718 117.033 350.424 131.655 350.424 149.692C350.424 167.729 364.718 182.351
382.35 182.351Z" fill="#F6A6A9"/>
<path d="M373.623 110.313C373.623 110.313 356.055 183.283 375.592 217.404L348.072 211.423C348.072 211.423 337.409 131.55 358.855 117.033L373.629 110.313H373.623Z" fill="#2F2E41"/>
<path opacity="0.1" d="M368.127 341.98C366.606 341.77 365.095 341.544 363.591 341.29C359.302 340.578 355.063 339.69 350.888 338.647C349.48 338.3 348.078 337.93 346.681 337.533L348.477
323.441L353.272 285.794L355.43 293.949L357.415 301.459L368.127 341.98Z" fill="#272223"/>
<path opacity="0.1" d="M458.62 328.925C457.444 329.46 456.263 329.979 455.071 330.481C454.893 330.558 454.715 330.636 454.537 330.713C454.224 330.845 453.911 330.978 453.593 331.105C449.278
332.892 444.876 334.498 440.394 335.91C429.746 328.202 421.542 317.465 416.807 305.029L414.282 298.402L398.111 250.487L433.938 288.939L440.486 299.544L450.545 315.832L458.625
328.92H458.62V328.925Z" fill="#272223"/>
<path d="M493.691 307.456C484.338 314.905 474.197 321.361 463.41 326.668C462.067 327.331 460.707 327.971 459.343 328.6C459.1 328.71 458.863 328.82 458.62 328.925C457.444 329.46 456.263 329.979
455.071 330.481C454.483 330.249 453.9 330.001 453.323 329.742C447.406 327.093 442.12 323.066 437.454 318.359C431.187 312.019 426.052 304.438 422.022 297.276C420.037 293.751 418.322 290.324 416.871
287.201L416.85 287.152C412.939 278.693 411.003 272.469 411.003 272.469L405.798 250.603L404.368 244.605L396.234 210.463L393.278 198.048L397.691 197.849L409.746 197.309L423.042 196.707C426.106
196.945 429.094 197.529 431.969 198.445C441.198 201.342 449.224 207.533 454.494 216.052C468.982 239.485 492.181 280.817 493.696 307.456H493.691Z" fill="#DDDEDF"/>
<path d="M342.209 182.836C349.205 180.259 367.722 180.248 376.029 183.118C377.642 183.675 378.618 185.352 378.337 187.068L378.008 189.104C378.731 188.994 379.438 188.784 380.107 188.47C382.086
187.543 385.986 186.285 389.923 188.293C392.674 189.694 394.611 192.337 395.29 195.411C396.914 202.76 392.82 206.827 392.82 206.827L387.367 212.063C382.798 216.444 377.814 220.35 372.49
223.716L372.383 223.782L374.324 211.831C375.419 213.801 377.895 214.446 379.778 213.255C384.535 210.242 392.308 204.206 391.364 197.353C390.706 192.575 388.111 191.559 385.619 191.775C382.83 192.017
380.398 193.811 379.206 196.398C378.92 197.016 378.451 197.524 377.868 197.855L376.466 198.638L372.356 223.97C372.172 225.106 371.46 226.088 370.452 226.596C360.786 231.446 350.354 228.93 346.745
227.799C345.92 227.54 345.214 226.982 344.771 226.221L343.995 224.902C343.725 224.45 343.563 223.937 343.509 223.412L339.922 186.544C339.766 184.916 340.71 183.393 342.215 182.836H342.209Z"
fill="#6C63FF"/>
<path d="M375.204 184.795C375.204 185.661 367.927 186.362 358.952 186.362C349.976 186.362 342.7 185.661 342.7 184.795C342.7 183.929 349.976 183.228 358.952 183.228C367.927 183.228 375.204 183.929
375.204 184.795Z" fill="#DEDFE0"/>
<path d="M383.062 219.401C376.946 210.408 376.725 199.83 382.566 195.769C388.408 191.708 398.095 195.703 404.212 204.702C406.704 208.261 408.29 212.388 408.84 216.742L434.256 255.183L415.604
267.266L392.529 228.091C388.704 226.017 385.457 223.037 383.062 219.407V219.401Z" fill="#F6A6A9"/>
<path d="M398.106 250.493L419.11 230.718L460.637 270.273L422.017 297.276L398.106 250.493Z" fill="#DDDEDF"/>
<path d="M390.803 344.093C386.968 344.093 383.149 343.961 379.443 343.707C375.624 343.447 371.789 343.05 368.051 342.526C366.406 342.3 364.917 342.074 363.499 341.836C359.286 341.136 354.998
340.247 350.753 339.188C349.297 338.829 347.878 338.454 346.53 338.068C346.055 337.941 345.57 337.803 345.09 337.665C343.04 337.075 341.055 336.462 339.199 335.844C339.081 335.811 338.94 335.761
338.8 335.717C337.128 335.166 335.381 334.553 333.611 333.897C332.117 333.345 330.607 332.76 328.994 332.109C323.73 329.985 318.487 327.54 313.411 324.848C286.485 310.546 263.793 289.033 247.773
262.631C231.316 235.474 222.611 204.151 222.611 172.044C222.611 126.088 240.108 82.8796 271.873 50.3866C303.638 17.8935 345.877 0 390.803 0C435.728 0 477.968 17.8935 509.738 50.3866C541.508
82.8796 559 126.088 559 172.044C559 199.047 553.056 224.897 541.34 248.871C530.164 271.735 513.805 292.145 494.02 307.887C484.586 315.396 474.37 321.885 463.642 327.16C462.428 327.761 461.128
328.373 459.564 329.096L459.391 329.173C459.202 329.262 459.019 329.345 458.83 329.427C457.654 329.962 456.457 330.487 455.276 330.983L454.742 331.215C454.423 331.353 454.105 331.485 453.782
331.612C449.445 333.405 444.995 335.033 440.545 336.429C437.244 337.477 433.786 338.449 430.264 339.315C417.432 342.482 404.152 344.087 390.803 344.087V344.093ZM390.803 1.12007C346.163 1.12007
304.198 18.8977 272.639 51.1866C241.074 83.4534 223.689 126.38 223.689 172.044C223.689 203.946 232.341 235.066 248.701 262.041C264.613 288.272 287.165 309.652 313.918 323.86C318.962 326.536 324.172
328.964 329.404 331.077C331.006 331.728 332.506 332.307 333.989 332.854C335.753 333.505 337.484 334.112 339.151 334.663C339.28 334.708 339.404 334.746 339.528 334.785C341.384 335.403 343.353
336.01 345.392 336.6C345.866 336.738 346.341 336.876 346.816 337.003C348.159 337.384 349.566 337.759 351.012 338.117C355.23 339.171 359.486 340.054 363.677 340.749C365.085 340.987 366.563 341.213
368.197 341.439C371.908 341.958 375.716 342.355 379.513 342.609C383.192 342.863 386.989 342.995 390.797 342.995C404.061 342.995 417.254 341.4 430.011 338.255C433.511 337.395 436.947 336.429
440.227 335.392C444.644 334.001 449.073 332.39 453.382 330.603C453.706 330.476 454.014 330.343 454.321 330.211L454.957 329.935C456.096 329.455 457.25 328.947 458.393 328.429C458.588 328.346
458.766 328.263 458.944 328.18L459.116 328.103C460.67 327.386 461.959 326.773 463.167 326.177C473.825 320.936 483.982 314.491 493.351 307.026C513.006 291.378 529.264 271.101 540.37 248.385C552.01
224.566 557.916 198.881 557.916 172.049C557.916 126.386 540.531 83.459 508.966 51.1756C477.412 18.8812 435.442 1.10352 390.803 1.10352V1.12007Z" fill="#DDDEDF"/>
<path opacity="0.1" d="M456.969 275.758L458.62 288.73L447.616 275.758V262.676L456.969 275.758Z" fill="#272223"/>
</g>
<g clip-path="url(#clip1_32_212)">
<path d="M143.43 323.823L183.097 333.764L178.495 275.606L143.461 278.641L143.43 323.823Z" fill="#F3A3A6"/>
<path d="M171.805 292.257C193.131 292.257 210.42 274.169 210.42 251.857C210.42 229.544 193.131 211.456 171.805 211.456C150.478 211.456 133.19 229.544 133.19 251.857C133.19 274.169 150.478 292.257
171.805 292.257Z" fill="#F3A3A6"/>
<path d="M212.561 423.483C212.252 423.592 211.949 423.691 211.64 423.79C211.551 423.817 211.462 423.85 211.373 423.877C208.101 424.94 204.782 425.887 201.426 426.731C189.181 429.82 176.391 431.452
163.245 431.452C159.549 431.452 155.884 431.326 152.256 431.069C148.545 430.811 144.869 430.423 141.236 429.902C139.76 429.694 138.294 429.469 136.833 429.218C132.671 428.511 128.556 427.629
124.504 426.594C123.138 426.249 121.777 425.882 120.421 425.487C119.955 425.361 119.489 425.225 119.028 425.088C117.117 424.523 115.217 423.926 113.332 423.286C113.207 423.247 113.076 423.203 112.95
423.16C111.264 422.59 109.589 421.987 107.924 421.358C106.427 420.793 104.94 420.202 103.459 419.588C100.166 418.23 96.9304 416.762 93.7474 415.185L94.9724 409.379L99.2182 389.266L108.437
345.568L117.756 301.41L142.241 302.122H142.252L143.445 302.16L180.684 303.245L196.976 303.721L212.561 423.483Z" fill="#DADBDC"/>
<path d="M249.03 405.895C244.098 409.11 238.983 412.052 233.717 414.703C232.413 415.36 231.094 415.995 229.769 416.62C229.534 416.729 229.303 416.839 229.068 416.943C227.927 417.474 226.78 417.989
225.623 418.487L225.105 418.718C224.801 418.849 224.497 418.98 224.189 419.106C220.383 420.717 216.508 422.185 212.566 423.483C212.257 423.592 211.954 423.691 211.645 423.79L177.49 332.357L175.182
326.184L168.742 308.936L166.606 303.223L180.705 303.453L196.981 303.721C211.755 305.699 224.005 316.637 228.199 331.585L249.035 405.895L249.03 405.895Z" fill="#DADBDC"/>
<path d="M144.718 270.315C146.089 270.074 147.461 269.828 148.833 269.587C149.157 261.913 149.864 253.352 155.356 248.253C158.382 245.443 162.758 243.805 164.261 239.872C165.507 236.613 164.345
232.61 166.083 229.608C167.91 226.448 171.993 225.883 175.522 225.653C181.045 225.297 186.668 224.947 192.044 226.316C197.421 227.691 202.609 231.076 204.902 236.345C205.609 237.966 206.017
239.714 206.425 241.444C207.802 247.3 209.912 258.441 209.912 258.441C209.912 258.441 210.32 256.135 211.483 251.649C213.854 248.099 216.749 244.824 218.142 240.749C219.817 235.841 219.079 230.358
217.435 225.445C213.702 214.266 205.043 204.818 194.259 201.225C183.469 197.637 173.265 195.605 165.203 203.919C163.69 205.48 162.329 207.222 160.601 208.515C157.408 210.908 153.33 211.511 149.728
213.165C141.713 216.846 134.467 225.697 132.661 234.658C130.855 243.619 131.797 252.903 132.75 262.012C133.572 269.866 137.137 278.624 143.388 283.061C143.644 279.041 143.901 275.026 144.157
271.005L144.712 270.321H144.718V270.315Z" fill="#2F2E43"/>
<path d="M166.093 308.087L165.716 308.733L155.172 326.764L139.54 353.516L136.373 358.933L124.824 378.695C124.824 378.695 121.075 384.21 114.751 391.282L114.73 391.304C112.432 393.867 109.799
396.633 106.883 399.41C106.862 399.437 106.841 399.459 106.815 399.476C103.255 402.872 99.2758 406.284 94.9724 409.379C93.2029 410.655 91.3811 411.871 89.5173 413.01C89.1351 412.813 88.7582
412.605 88.3813 412.402C70.4663 402.669 54.4988 389.556 41.2537 373.869C55.0799 350.766 82.4393 324.858 100.066 309.429C110.039 300.692 123.363 297.401 136.011 300.567L142.241 302.122L143.445
302.423L166.093 308.087Z" fill="#DADBDC"/>
<path d="M163.245 432C159.523 432 155.811 431.869 152.22 431.617C148.508 431.359 144.791 430.965 141.163 430.444C139.566 430.22 138.121 429.995 136.744 429.76C132.656 429.064 128.494 428.182
124.379 427.131C122.97 426.775 121.588 426.402 120.28 426.019C119.819 425.893 119.348 425.756 118.882 425.619C116.892 425.033 114.966 424.425 113.165 423.811C113.05 423.779 112.914 423.729 112.777
423.685C111.149 423.138 109.453 422.53 107.741 421.878C106.296 421.33 104.83 420.75 103.26 420.103C99.9878 418.756 96.7105 417.266 93.517 415.683C92.1873 415.031 90.7999 414.314 89.2713
413.503C88.999 413.361 88.7216 413.213 88.4493 413.065L88.1352 412.895C70.1888 403.146 54.2789 390.137 40.8558 374.236C14.5121 343.027 0 302.883 0 261.207C0 215.586 16.9831 172.693 47.8134
140.437C78.6437 108.182 119.641 90.4186 163.245 90.4186C206.849 90.4186 247.847 108.182 278.682 140.437C309.518 172.693 326.496 215.586 326.496 261.207C326.496 288.013 320.726 313.674 309.355
337.478C298.508 360.176 282.63 380.437 263.427 396.063C258.914 399.744 254.16 403.206 249.302 406.361C244.376 409.57 239.208 412.545 233.942 415.196C232.769 415.787 231.513 416.401 229.984
417.118L229.837 417.184C229.649 417.272 229.46 417.359 229.272 417.441C228.131 417.973 226.968 418.493 225.822 418.986L225.304 419.216C224.979 419.358 224.675 419.49 224.372 419.61C220.482 421.254
216.561 422.732 212.718 423.998C212.415 424.107 212.106 424.206 211.792 424.304L211.519 424.392C208.326 425.427 204.965 426.391 201.546 427.251C189.092 430.395 176.202 431.989 163.245
431.989L163.245 432ZM163.245 91.5141C119.918 91.5141 79.1882 109.162 48.5516 141.215C17.9202 173.263 1.04705 215.876 1.04705 261.207C1.04705 302.62 15.4649 342.501 41.6463 373.508C54.9857 389.304
70.7909 402.231 88.6221 411.915L88.9362 412.084C89.2032 412.232 89.4754 412.375 89.7477 412.517C91.2711 413.328 92.648 414.04 93.9673 414.686C97.1398 416.258 100.396 417.737 103.647 419.074C105.207
419.72 106.663 420.295 108.097 420.837C109.799 421.484 111.484 422.086 113.107 422.634C113.233 422.678 113.353 422.716 113.474 422.754C115.28 423.368 117.186 423.97 119.164 424.556C119.62 424.693
120.086 424.83 120.547 424.956C121.855 425.334 123.222 425.707 124.62 426.063C128.714 427.109 132.844 427.991 136.912 428.675C138.278 428.911 139.713 429.135 141.299 429.36C144.901 429.875 148.597
430.269 152.283 430.521C155.853 430.773 159.539 430.905 163.235 430.905C176.113 430.905 188.914 429.322 201.295 426.199C204.693 425.345 208.027 424.386 211.21 423.357L211.483 423.269C211.786
423.171 212.085 423.077 212.388 422.968C216.215 421.708 220.116 420.24 223.984 418.603C224.288 418.477 224.581 418.351 224.874 418.225L225.518 417.945C226.623 417.469 227.743 416.965 228.853
416.45C229.047 416.362 229.225 416.28 229.408 416.192L229.555 416.127C231.073 415.409 232.324 414.801 233.486 414.215C238.722 411.581 243.857 408.628 248.752 405.435C253.579 402.302 258.301 398.857
262.788 395.203C281.865 379.67 297.644 359.541 308.424 336.991C319.721 313.345 325.454 287.848 325.454 261.212C325.454 215.882 308.581 173.268 277.944 141.221C247.307 109.162 206.572 91.5141 163.245
91.5141Z" fill="#DADBDC"/>
<path d="M215.283 302.527C208.493 299.969 190.521 299.959 182.458 302.807C180.893 303.36 179.946 305.025 180.218 306.728L180.537 308.75C179.836 308.64 179.15 308.432 178.501 308.12C176.579 307.2
172.794 305.951 168.972 307.944C166.303 309.336 164.423 311.959 163.763 315.01C162.188 322.306 166.161 326.343 166.161 326.343L171.454 331.541C175.888 335.89 180.726 339.768 185.893
343.109L185.997 343.174L184.113 331.311C183.05 333.266 180.647 333.907 178.82 332.724C174.202 329.733 166.658 323.741 167.575 316.938C168.213 312.195 170.732 311.187 173.15 311.401C175.857 311.642
178.218 313.422 179.375 315.991C179.652 316.604 180.108 317.108 180.673 317.437L182.034 318.214L186.024 343.361C186.202 344.489 186.893 345.464 187.872 345.968C197.253 350.782 207.378 348.285
210.881 347.162C211.682 346.905 212.367 346.351 212.797 345.595L213.551 344.286C213.812 343.837 213.969 343.328 214.022 342.807L217.503 306.208C217.655 304.592 216.739 303.081 215.278
302.527L215.283 302.527Z" fill="#6C63FF"/>
<path d="M199.028 306.027C207.74 306.027 214.802 305.331 214.802 304.472C214.802 303.613 207.74 302.916 199.028 302.916C190.316 302.916 183.254 303.613 183.254 304.472C183.254 305.331 190.316
306.027 199.028 306.027Z" fill="#DEDFE0"/>
<path d="M167.517 335.649C176.077 328.797 179.464 318.494 175.082 312.638C170.705 306.783 160.219 307.588 151.654 314.446C148.199 317.135 145.435 320.674 143.608 324.765L107.715 354.282L121.965
372.117L155.837 341.12C160.125 340.315 164.13 338.437 167.512 335.649H167.517Z" fill="#F3A3A6"/>
<path d="M143.77 361.293L129.572 335.167L77.9056 360.603L106.815 399.481L143.77 361.293Z" fill="#DADBDC"/>
<path opacity="0.1" d="M112.804 343.421C112.804 343.421 75.1413 372.27 76.5339 372.111C77.9265 371.952 96.4959 361.266 96.4959 361.266L112.804 343.421Z" fill="#272223"/>
<path d="M325.259 268.744L234.978 110.512L236.215 106.744L238.688 105.488H251.055L305.471 146.93L330.206 242.372L325.259 268.744Z" fill="white"/>
</g>
<defs>
<clipPath id="clip0_32_212">
<rect width="336.389" height="344.093" fill="white" transform="translate(222.611)"/>
</clipPath>
<clipPath id="clip1_32_212">
<rect width="326.496" height="341.581" fill="white" transform="translate(0 90.4186)"/>
</clipPath>
</defs>
</svg>