<svg width="789" height="438" viewBox="0 0 789 438" fill="none" xmlns="http://www.w3.org/2000/svg">
<g clip-path="url(#clip0_54_361)">
<path d="M735.216 427.892C734.198 430.695 732.93 433.387 731.431 435.933C731.013 436.636 730.577 437.328 730.111 438H691.447C691.175 437.783 690.913 437.555 690.641 437.338C689.283 437.225 687.934 437.08 686.614 436.925C686.75 436.801 686.895 436.677 687.032 436.553C686.333 436.615 685.634 436.677 684.935 436.708C685.488 436.78 686.051 436.853 686.614 436.925C686.197 437.287 685.77 437.649 685.333 438H683.644L684.78 436.708C683.878 436.739 682.984 436.76 682.082 436.739L684.906 435.933L687.953 435.065C688.07 435.168 688.196 435.271 688.312 435.375C693.513 430.507 697.742 424.576 700.748 417.933C703.753 411.29 705.473 404.071 705.806 396.706C706.14 389.341 705.079 381.98 702.687 375.06C700.295 368.14 696.621 361.803 691.884 356.426C699.51 361.876 706.041 368.886 711.098 377.05C716.154 385.214 719.635 394.367 721.338 403.977C722.213 408.675 722.344 413.496 721.726 418.239C722.066 417.837 722.405 417.434 722.735 417.02C727.651 410.679 731.194 403.262 733.113 395.297C735.032 387.332 735.279 379.015 733.838 370.936C737.602 379.859 739.662 389.489 739.898 399.267C740.135 409.045 738.543 418.775 735.216 427.892Z" fill="#E6E6E6"/>
<path d="M542.345 82.23C557.396 82.23 569.597 69.2363 569.597 53.2077C569.597 37.1791 557.396 24.1853 542.345 24.1853C527.293 24.1853 515.092 37.1791 515.092 53.2077C515.092 69.2363 527.293 82.23 542.345 82.23Z" fill="#2F2E41"/>
<path d="M630.722 425.903L618.824 425.902L613.163 377.03L630.724 377.031L630.722 425.903Z" fill="#FFB8B8"/>
<path d="M610.324 422.282H633.27V437.667H595.877C595.877 435.647 596.251 433.646 596.977 431.779C597.703 429.913 598.767 428.217 600.108 426.788C601.45 425.359 603.043 424.226 604.796 423.453C606.548 422.679 608.427 422.282 610.324 422.282Z" fill="#2F2E41"/>
<path d="M509.352 424.244L497.864 420.945L504.344 372.189L521.298 377.058L509.352 424.244Z" fill="#FFB8B8"/>
<path d="M490.543 415.094L512.698 421.455L508.937 436.31L472.833 425.944C473.83 422.004 476.256 418.648 479.578 416.613C482.899 414.578 486.843 414.032 490.543 415.094Z" fill="#2F2E41"/>
<path d="M531.897 199.771L496.469 413.569L514.637 417.438L571.868 266.522L614.564 416.471L636.366 413.569C636.366 413.569 626.374 198.803 594.579 180.422L531.897 199.771Z" fill="#2F2E41"/>
<path d="M475.712 276.253C476.989 275.576 478.111 274.609 479 273.42C479.888 272.231 480.521 270.85 480.854 269.372C481.186 267.895 481.211 266.358 480.925 264.869C480.64 263.38 480.051 261.976 479.201 260.756L498.74 230.244L480.721 229.946L464.929 258.967C463.099 260.623 461.903 262.938 461.568 265.47C461.233 268.003 461.781 270.579 463.111 272.71C464.44 274.841 466.457 276.378 468.779 277.031C471.101 277.684 473.568 277.407 475.712 276.253Z" fill="#FFB8B8"/>
<path d="M604.708 238.524C605.985 237.847 607.107 236.88 607.996 235.691C608.884 234.502 609.517 233.12 609.85 231.643C610.183 230.166 610.207 228.628 609.921 227.14C609.636 225.651 609.048 224.247 608.197 223.027L627.737 192.515L609.717 192.217L593.925 221.238C592.095 222.894 590.899 225.208 590.564 227.741C590.229 230.274 590.778 232.85 592.107 234.981C593.436 237.112 595.453 238.649 597.775 239.302C600.098 239.955 602.564 239.678 604.708 238.524Z" fill="#FFB8B8"/>
<path d="M543.038 87.9761C556.202 87.9761 566.874 76.6114 566.874 62.5923C566.874 48.5733 556.202 37.2086 543.038 37.2086C529.874 37.2086 519.202 48.5733 519.202 62.5923C519.202 76.6114 529.874 87.9761 543.038 87.9761Z" fill="#FFB8B8"/>
<path d="M594.579 102.062C593.671 98.1923 578.228 99.1597 578.228 99.1597C578.228 99.1597 560.838 94.9023 561.003 95.4346C546.348 94.2334 528.473 100.092 525.869 100.981C520.543 102.546 510.365 107.333 503.026 110.854C502.005 111.344 501.206 112.244 500.804 113.358C500.402 114.472 500.43 115.71 500.88 116.802L523.268 171.232L526.447 206.542L600.03 182.357C581.861 174.618 595.488 105.932 594.579 102.062Z" fill="#6C63FF"/>
<path d="M588.22 103.029L594.259 101.414L627.282 170.748L629.099 210.413L608.205 192.999V177.521L586.403 147.531L588.22 103.029Z" fill="#6C63FF"/>
<path d="M508.732 108.35L501.74 111.66C501.375 111.832 501.057 112.097 500.811 112.432C500.566 112.766 500.402 113.16 500.333 113.578L486.476 197.836L472.85 240.402L491.018 250.076L511.912 196.868L519.179 158.172L508.732 108.35Z" fill="#6C63FF"/>
<path d="M518.042 50.6262C522.88 48.9345 527.983 51.5866 532.709 53.6055C537.367 55.5951 542.343 57.029 547.353 56.7155C552.362 56.4021 557.429 54.149 560.458 49.8879C563.486 45.6267 564.019 39.2405 561.021 34.9549C559.048 32.1336 555.898 30.5239 552.745 29.4757C546.007 27.2361 538.466 27.1588 532.061 30.3184C525.656 33.4779 520.634 40.1528 520.106 47.6486" fill="#2F2E41"/>
<path d="M541.618 30.4069C539.993 18.6912 546.02 6.52699 554.244 2.16335C562.469 -2.20029 572.118 0.37386 579.528 6.87186C586.937 13.3699 592.339 23.3553 596.359 33.97C600.379 44.5846 603.163 55.9537 606.438 67.024C609.347 76.8557 612.762 86.6934 618.287 94.2128C623.812 101.732 631.847 106.625 639.546 104.559C633.221 113.615 621.585 112.047 614.366 104.301C607.148 96.5549 603.395 84.4475 600.441 72.6621C597.487 60.8766 594.917 48.5453 589.203 38.7789C579.037 21.4043 559.087 16.1844 544.841 27.1712" fill="#2F2E41"/>
<path d="M789 435.933H0V438H789V435.933Z" fill="#3F3D56"/>
<path d="M413.948 237.613H69.599C66.8418 237.61 64.1983 236.442 62.2486 234.366C60.2989 232.289 59.2022 229.474 59.1992 226.538V139.168C59.2022 136.231 60.2989 133.416 62.2486 131.34C64.1983 129.264 66.8418 128.096 69.599 128.093H413.948C416.706 128.096 419.349 129.264 421.299 131.34C423.248 133.416 424.345 136.231 424.348 139.168V226.538C424.345 229.474 423.249 232.289 421.299 234.366C419.349 236.442 416.706 237.61 413.948 237.613ZM69.599 130.554C67.4546 130.556 65.3987 131.465 63.8823 133.08C62.3659 134.695 61.5129 136.884 61.5103 139.168V226.538C61.5129 228.822 62.3659 231.011 63.8823 232.626C65.3987 234.241 67.4546 235.149 69.599 235.152H413.948C416.093 235.149 418.149 234.241 419.665 232.626C421.181 231.011 422.035 228.822 422.037 226.538V139.168C422.035 136.884 421.181 134.695 419.665 133.08C418.149 131.465 416.093 130.556 413.948 130.554H69.599Z" fill="#3F3D56"/>
<path d="M397.193 219.155H86.3542C86.2022 219.155 86.0516 219.124 85.911 219.062C85.7704 219 85.6426 218.91 85.5349 218.795C85.4273 218.681 85.3419 218.545 85.2836 218.396C85.2253 218.246 85.1953 218.086 85.1953 217.924C85.1953 217.762 85.2253 217.602 85.2836 217.452C85.3419 217.303 85.4273 217.167 85.5349 217.053C85.6426 216.938 85.7704 216.848 85.911 216.786C86.0516 216.724 86.2022 216.693 86.3542 216.693H397.193C397.345 216.693 397.496 216.724 397.636 216.786C397.777 216.848 397.905 216.938 398.012 217.053C398.12 217.167 398.205 217.303 398.264 217.452C398.322 217.602 398.352 217.762 398.352 217.924C398.352 218.086 398.322 218.246 398.264 218.396C398.205 218.545 398.12 218.681 398.012 218.795C397.905 218.91 397.777 219 397.636 219.062C397.496 219.124 397.345 219.155 397.193 219.155Z" fill="#E6E6E6"/>
<path d="M119.287 178.546H93.8651C93.5592 178.547 93.2661 178.677 93.0502 178.908C92.8342 179.138 92.7129 179.451 92.7129 179.776C92.7129 180.102 92.8342 180.415 93.0502 180.645C93.2661 180.876 93.5592 181.006 93.8651 181.007H105.42V202.767C105.4 204.344 105.945 205.87 106.945 207.034C107.944 208.198 109.323 208.912 110.8 209.031C110.872 209.035 110.946 209.036 111.022 209.036C111.93 209.018 112.821 208.765 113.617 208.298C114.413 207.831 115.089 207.164 115.589 206.356C115.772 206.095 115.851 205.767 115.807 205.445C115.764 205.122 115.602 204.831 115.357 204.635C115.112 204.44 114.804 204.356 114.501 204.402C114.198 204.448 113.924 204.62 113.741 204.88C113.446 205.402 113.029 205.832 112.53 206.129C112.031 206.426 111.468 206.579 110.897 206.573C110.014 206.485 109.195 206.043 108.607 205.336C108.019 204.629 107.706 203.711 107.732 202.767V181.007H119.287C119.439 181.007 119.59 180.976 119.73 180.914C119.871 180.853 119.998 180.762 120.106 180.648C120.214 180.533 120.299 180.398 120.357 180.248C120.416 180.099 120.446 179.938 120.446 179.776C120.446 179.614 120.416 179.454 120.357 179.305C120.299 179.155 120.214 179.019 120.106 178.905C119.998 178.791 119.871 178.7 119.73 178.638C119.59 178.577 119.439 178.545 119.287 178.546Z" fill="#6C63FF"/>
<path d="M205.952 285.605C211.058 285.605 215.197 281.198 215.197 275.761C215.197 270.324 211.058 265.916 205.952 265.916C200.847 265.916 196.708 270.324 196.708 275.761C196.708 281.198 200.847 285.605 205.952 285.605Z" fill="#E6E6E6"/>
<path d="M241.774 285.605C246.879 285.605 251.018 281.198 251.018 275.761C251.018 270.324 246.879 265.916 241.774 265.916C236.668 265.916 232.529 270.324 232.529 275.761C232.529 281.198 236.668 285.605 241.774 285.605Z" fill="#6C63FF"/>
<path d="M277.595 285.605C282.7 285.605 286.839 281.198 286.839 275.761C286.839 270.324 282.7 265.916 277.595 265.916C272.489 265.916 268.351 270.324 268.351 275.761C268.351 281.198 272.489 285.605 277.595 285.605Z" fill="#E6E6E6"/>
<path d="M124.683 208.118C125.06 208.104 125.417 207.935 125.68 207.646C125.942 207.356 126.089 206.97 126.089 206.568C126.089 206.166 125.942 205.779 125.68 205.49C125.417 205.201 125.06 205.032 124.683 205.018C124.305 205.032 123.948 205.201 123.685 205.49C123.423 205.779 123.276 206.166 123.276 206.568C123.276 206.97 123.423 207.356 123.685 207.646C123.948 207.935 124.305 208.104 124.683 208.118Z" fill="#3F3D56"/>
<path d="M133.927 208.118C134.304 208.104 134.662 207.935 134.924 207.646C135.186 207.356 135.333 206.97 135.333 206.568C135.333 206.166 135.186 205.779 134.924 205.49C134.662 205.201 134.304 205.032 133.927 205.018C133.549 205.032 133.192 205.201 132.929 205.49C132.667 205.779 132.521 206.166 132.521 206.568C132.521 206.97 132.667 207.356 132.929 207.646C133.192 207.935 133.549 208.104 133.927 208.118Z" fill="#3F3D56"/>
<path d="M143.171 208.118C143.548 208.104 143.906 207.935 144.168 207.646C144.43 207.356 144.577 206.97 144.577 206.568C144.577 206.166 144.43 205.779 144.168 205.49C143.906 205.201 143.548 205.032 143.171 205.018C142.793 205.032 142.436 205.201 142.174 205.49C141.911 205.779 141.765 206.166 141.765 206.568C141.765 206.97 141.911 207.356 142.174 207.646C142.436 207.935 142.793 208.104 143.171 208.118Z" fill="#3F3D56"/>
</g>
<defs>
<clipPath id="clip0_54_361">
<rect width="789" height="438" fill="white"/>
</clipPath>
</defs>
</svg>
