<svg width="96" height="96" viewBox="0 0 96 96" fill="none" xmlns="http://www.w3.org/2000/svg">
<path fill-rule="evenodd" clip-rule="evenodd" d="M20.9787 72.0956C21.0921 72.6361 20.746 73.1663 20.2055 73.2798C16.5492 74.0474 13.646 74.9642 11.6815 75.9577C10.6977 76.4552 9.99975 76.9472 9.56001 77.4083C9.12445 77.8651 9 78.2267 9 78.5001C9 78.7631 9.11468 79.1062 9.50986 79.5381C9.91009 79.9756 10.5481 80.4457 11.4537 80.9247C13.2631 81.8816 15.9472 82.7738 19.3482 83.5346C26.1341 85.0525 35.5575 86.0001 46 86.0001C56.4425 86.0001 65.8659 85.0525 72.6518 83.5346C76.0528 82.7738 78.7369 81.8816 80.5463 80.9247C81.4519 80.4457 82.0899 79.9756 82.4901 79.5381C82.8853 79.1062 83 78.7631 83 78.5001C83 78.2267 82.8756 77.8651 82.44 77.4083C82.0003 76.9472 81.3023 76.4552 80.3185 75.9577C78.354 74.9642 75.4508 74.0474 71.7945 73.2798C71.254 73.1663 70.9079 72.6361 71.0213 72.0956C71.1348 71.5551 71.665 71.209 72.2055 71.3224C75.9354 72.1055 79.0321 73.0659 81.2211 74.173C82.3141 74.7257 83.2312 75.34 83.8874 76.0281C84.5477 76.7205 85 77.5511 85 78.5001C85 79.4106 84.583 80.2134 83.9658 80.8881C83.3537 81.5572 82.4985 82.1547 81.4813 82.6926C79.4449 83.7696 76.5639 84.7089 73.0883 85.4864C66.1209 87.0448 56.5443 88.0001 46 88.0001C35.4557 88.0001 25.879 87.0448 18.9117 85.4864C15.4361 84.7089 12.5551 83.7696 10.5187 82.6926C9.50147 82.1547 8.64634 81.5572 8.03419 80.8881C7.41698 80.2134 7 79.4106 7 78.5001C7 77.5511 7.45228 76.7205 8.11263 76.0281C8.7688 75.34 9.6859 74.7257 10.7789 74.173C12.9679 73.0659 16.0646 72.1055 19.7945 71.3224C20.335 71.209 20.8652 71.5551 20.9787 72.0956Z" fill="#AC7349"/>
<path fill-rule="evenodd" clip-rule="evenodd" d="M75.5094 64.7174C75.2315 64.2621 75.147 63.7147 75.2747 63.1968C75.566 62.015 75.766 60.7855 75.8811 59.5313C75.9352 58.9417 76.2477 58.4064 76.7345 58.0695C77.2214 57.7326 77.8325 57.6286 78.4033 57.7857C78.9095 57.925 79.4444 58 80.0001 58C83.3138 58 86.0001 55.3137 86.0001 52C86.0001 48.6863 83.3138 46 80.0001 46C79.479 46 78.9763 46.0659 78.4986 46.1889C77.8998 46.343 77.2634 46.2115 76.7747 45.8327C76.286 45.4539 76.0001 44.8703 76.0001 44.252V40.1659C76.0001 39.189 76.7057 38.3551 77.6691 38.1935C78.4285 38.0661 79.2073 38 80.0001 38C87.732 38 94.0001 44.268 94.0001 52C94.0001 59.732 87.732 66 80.0001 66C78.8851 66 77.798 65.8693 76.7544 65.6214C76.2354 65.4981 75.7872 65.1727 75.5094 64.7174ZM79.8548 59.9987C79.1696 59.9865 78.5055 59.8882 77.8727 59.7141C77.8111 60.3857 77.7265 61.0534 77.6178 61.714C77.5314 62.2386 77.4298 62.7587 77.3122 63.2727C77.2814 63.4074 77.2496 63.5417 77.2166 63.6755C77.8599 63.8283 78.5234 63.9293 79.2022 63.9739C79.4659 63.9912 79.732 64 80.0001 64C86.6275 64 92.0001 58.6274 92.0001 52C92.0001 45.3726 86.6275 40 80.0001 40C79.3186 40 78.6505 40.0568 78.0001 40.1659V44.252C78.6393 44.0875 79.3095 44 80.0001 44C84.4183 44 88.0001 47.5817 88.0001 52C88.0001 56.4183 84.4183 60 80.0001 60C79.9515 60 79.9031 59.9996 79.8548 59.9987Z" fill="#AC7349"/>
<path fill-rule="evenodd" clip-rule="evenodd" d="M15 31C15.5523 31 16 31.4477 16 32V57.0087C16 63.9888 18.4141 70.7458 24.4626 73.9544C29.4078 76.5776 36.5327 79 46 79C55.4673 79 62.5922 76.5776 67.5374 73.9544C73.5859 70.7458 76 63.9888 76 57.0087V32C76 31.4477 76.4477 31 77 31C77.5523 31 78 31.4477 78 32V57.0087C78 64.3491 75.4555 72.0181 68.4747 75.7212C63.2681 78.4831 55.8237 81 46 81C36.1763 81 28.7319 78.4831 23.5253 75.7212C16.5445 72.0181 14 64.3491 14 57.0087V32C14 31.4477 14.4477 31 15 31Z" fill="#AC7349"/>
<path fill-rule="evenodd" clip-rule="evenodd" d="M18 36.7592V57.431C18 62.8014 19.7771 68.1592 24.3081 71.042C28.9006 73.9639 36.0633 77 46 77C55.9367 77 63.0994 73.9639 67.6919 71.042C72.2229 68.1592 74 62.8014 74 57.431V36.7592C69.6662 38.07 58.764 39 46 39C33.236 39 22.3338 38.07 18 36.7592Z" fill="#FFE7CB"/>
<path d="M67.6919 71.042C72.2229 68.1592 74 62.8014 74 57.431V36.7592C71.6634 37.4659 67.4176 38.0619 62 38.4612V73.9827C64.21 73.0756 66.1045 72.052 67.6919 71.042Z" fill="#F3D4AF"/>
<path d="M24.3081 71.042C19.7771 68.1592 18 62.8014 18 57.431V36.7592C19.8857 37.3295 23.0149 37.8278 27 38.2087V72.5923C26.0208 72.0837 25.1239 71.561 24.3081 71.042Z" fill="#FFF3E4"/>
<path d="M18 47.7592V57.431C18 62.8014 19.7771 68.1592 24.3081 71.042C28.9006 73.9639 36.0633 77 46 77C55.9367 77 63.0994 73.9639 67.6919 71.042C72.2229 68.1592 74 62.8014 74 57.431V47.7592C69.6662 49.07 58.764 50 46 50C33.236 50 22.3338 49.07 18 47.7592Z" fill="#75370A"/>
<path d="M67.6919 71.042C72.2229 68.1592 74 62.8014 74 57.431V47.7592C71.6634 48.4659 67.4176 49.0619 62 49.4612V73.9827C64.21 73.0756 66.1045 72.052 67.6919 71.042Z" fill="#572908"/>
<path d="M24.3081 71.042C19.7771 68.1592 18 62.8014 18 57.431V47.7592C19.8857 48.3295 23.0149 48.8278 27 49.2087V72.5923C26.0208 72.0837 25.1239 71.561 24.3081 71.042Z" fill="#8E4917"/>
<path fill-rule="evenodd" clip-rule="evenodd" d="M67.445 35.9614C61.9176 36.6063 54.3365 37 46 37C37.6635 37 30.0824 36.6063 24.555 35.9614C21.8048 35.6405 19.4901 35.2494 17.8257 34.7904C17.0091 34.5651 16.2329 34.2929 15.6189 33.9428C15.3124 33.7681 14.951 33.521 14.6464 33.171C14.3304 32.808 14 32.2406 14 31.5C14 30.7594 14.3304 30.192 14.6464 29.829C14.951 29.479 15.3124 29.2319 15.6189 29.0572C16.2329 28.7071 17.0091 28.4349 17.8257 28.2096C19.4901 27.7506 21.8048 27.3595 24.555 27.0386C30.0824 26.3937 37.6635 26 46 26C54.3365 26 61.9176 26.3937 67.445 27.0386C70.1952 27.3595 72.5099 27.7506 74.1743 28.2096C74.9909 28.4349 75.7671 28.7071 76.3811 29.0572C76.6876 29.2319 77.049 29.479 77.3536 29.829C77.6696 30.192 78 30.7594 78 31.5C78 32.2406 77.6696 32.808 77.3536 33.171C77.049 33.521 76.6876 33.7681 76.3811 33.9428C75.7671 34.2929 74.9909 34.5651 74.1743 34.7904C72.5099 35.2494 70.1952 35.6405 67.445 35.9614ZM46 35C62.5685 35 76 33.433 76 31.5C76 29.567 62.5685 28 46 28C29.4315 28 16 29.567 16 31.5C16 33.433 29.4315 35 46 35Z" fill="#AC7349"/>
<path fill-rule="evenodd" clip-rule="evenodd" d="M22 40C22.5523 40 23 40.4477 23 41V47C23 47.5523 22.5523 48 22 48C21.4477 48 21 47.5523 21 47V41C21 40.4477 21.4477 40 22 40Z" fill="white"/>
<path d="M16 24.9211C16 20.3429 19.7453 16.6316 24.3654 16.6316C25.1612 16.6316 25.9311 16.7417 26.6603 16.9474C28.1298 12.8967 32.0408 10 36.6346 10C41.0005 10 44.7497 12.6165 46.3724 16.3534C47.4746 15.8235 48.7119 15.5263 50.0192 15.5263C53.6732 15.5263 56.78 17.8478 57.9196 21.0835C59.4583 21.2306 60.8447 21.8939 61.9001 22.8967C63.1847 21.7503 64.8851 21.0526 66.75 21.0526C70.7541 21.0526 74 24.2691 74 28.2368C74 29.216 73.8023 30.1494 73.4444 31C73.4444 31 70.8189 34 46.0612 34C21.3034 34 18.678 31 18.678 31C17.0308 29.4861 16 27.3228 16 24.9211Z" fill="white"/>
<path d="M35 16C35 17.1046 34.1046 18 33 18C31.8954 18 31 17.1046 31 16C31 14.8954 31.8954 14 33 14C34.1046 14 35 14.8954 35 16Z" fill="#FFE7CB"/>
<path d="M29 21C29 22.1046 28.1046 23 27 23C25.8954 23 25 22.1046 25 21C25 19.8954 25.8954 19 27 19C28.1046 19 29 19.8954 29 21Z" fill="#FFE7CB"/>
<path d="M36 29.5C36 30.3284 35.3284 31 34.5 31C33.6716 31 33 30.3284 33 29.5C33 28.6716 33.6716 28 34.5 28C35.3284 28 36 28.6716 36 29.5Z" fill="#FFE7CB"/>
<path d="M44 20.5C44 21.3284 43.3284 22 42.5 22C41.6716 22 41 21.3284 41 20.5C41 19.6716 41.6716 19 42.5 19C43.3284 19 44 19.6716 44 20.5Z" fill="#FFE7CB"/>
<path d="M56 29.5C56 30.3284 55.3284 31 54.5 31C53.6716 31 53 30.3284 53 29.5C53 28.6716 53.6716 28 54.5 28C55.3284 28 56 28.6716 56 29.5Z" fill="#FFE7CB"/>
<path d="M51 30C51 31.1046 50.1046 32 49 32C47.8954 32 47 31.1046 47 30C47 28.8954 47.8954 28 49 28C50.1046 28 51 28.8954 51 30Z" fill="#FFE7CB"/>
<path d="M61 27C61 28.1046 60.1046 29 59 29C57.8954 29 57 28.1046 57 27C57 25.8954 57.8954 25 59 25C60.1046 25 61 25.8954 61 27Z" fill="#FFE7CB"/>
<path d="M23 24C23 25.1046 22.1046 26 21 26C19.8954 26 19 25.1046 19 24C19 22.8954 19.8954 22 21 22C22.1046 22 23 22.8954 23 24Z" fill="#FFE7CB"/>
<path d="M42 16C42 17.1046 41.1046 18 40 18C38.8954 18 38 17.1046 38 16C38 14.8954 38.8954 14 40 14C41.1046 14 42 14.8954 42 16Z" fill="#FFE7CB"/>
<path d="M44 28.5C44 29.8807 42.8807 31 41.5 31C40.1193 31 39 29.8807 39 28.5C39 27.1193 40.1193 26 41.5 26C42.8807 26 44 27.1193 44 28.5Z" fill="#FFE7CB"/>
<path d="M39 23C39 24.6569 37.6569 26 36 26C34.3431 26 33 24.6569 33 23C33 21.3431 34.3431 20 36 20C37.6569 20 39 21.3431 39 23Z" fill="#FFE7CB"/>
<path d="M30 28C30 29.6569 28.6569 31 27 31C25.3431 31 24 29.6569 24 28C24 26.3431 25.3431 25 27 25C28.6569 25 30 26.3431 30 28Z" fill="#FFE7CB"/>
<path d="M54 22.5C54 24.433 52.433 26 50.5 26C48.567 26 47 24.433 47 22.5C47 20.567 48.567 19 50.5 19C52.433 19 54 20.567 54 22.5Z" fill="#FFE7CB"/>
<path d="M70 27C70 28.6569 68.6569 30 67 30C65.3431 30 64 28.6569 64 27C64 25.3431 65.3431 24 67 24C68.6569 24 70 25.3431 70 27Z" fill="#FFE7CB"/>
<path d="M62.9999 65.3636C62.9999 66.167 62.3487 66.8182 61.5454 66.8182C60.742 66.8182 60.0908 66.167 60.0908 65.3636C60.0908 64.5603 60.742 63.9091 61.5454 63.9091C62.3487 63.9091 62.9999 64.5603 62.9999 65.3636Z" fill="#572908"/>
<path d="M58.6364 62.4545C58.6364 63.2579 57.9852 63.9091 57.1818 63.9091C56.3785 63.9091 55.7273 63.2579 55.7273 62.4545C55.7273 61.6512 56.3785 61 57.1818 61C57.9852 61 58.6364 61.6512 58.6364 62.4545Z" fill="#572908"/>
<path d="M55.9091 58.4545C55.9091 59.2579 55.2579 59.9091 54.4545 59.9091C53.6512 59.9091 53 59.2579 53 58.4545C53 57.6512 53.6512 57 54.4545 57C55.2579 57 55.9091 57.6512 55.9091 58.4545Z" fill="#572908"/>
<path d="M52.091 63.2727C52.091 63.8752 51.6026 64.3636 51.0001 64.3636C50.3976 64.3636 49.9092 63.8752 49.9092 63.2727C49.9092 62.6702 50.3976 62.1818 51.0001 62.1818C51.6026 62.1818 52.091 62.6702 52.091 63.2727Z" fill="#572908"/>
<path d="M50.1818 59.0909C50.1818 59.6934 49.6934 60.1818 49.0909 60.1818C48.4884 60.1818 48 59.6934 48 59.0909C48 58.4884 48.4884 58 49.0909 58C49.6934 58 50.1818 58.4884 50.1818 59.0909Z" fill="#572908"/>
<path d="M47.1818 65.0909C47.1818 65.6934 46.6934 66.1818 46.0909 66.1818C45.4884 66.1818 45 65.6934 45 65.0909C45 64.4884 45.4884 64 46.0909 64C46.6934 64 47.1818 64.4884 47.1818 65.0909Z" fill="#572908"/>
<path d="M47.1818 72.0909C47.1818 72.6934 46.6934 73.1818 46.0909 73.1818C45.4884 73.1818 45 72.6934 45 72.0909C45 71.4884 45.4884 71 46.0909 71C46.6934 71 47.1818 71.4884 47.1818 72.0909Z" fill="#572908"/>
<path d="M52.8183 72.6364C52.8183 73.4397 52.167 74.0909 51.3637 74.0909C50.5604 74.0909 49.9092 73.4397 49.9092 72.6364C49.9092 71.833 50.5604 71.1818 51.3637 71.1818C52.167 71.1818 52.8183 71.833 52.8183 72.6364Z" fill="#572908"/>
<path d="M50.1818 67.6364C50.1818 68.2389 49.6934 68.7273 49.0909 68.7273C48.4884 68.7273 48 68.2389 48 67.6364C48 67.0339 48.4884 66.5455 49.0909 66.5455C49.6934 66.5455 50.1818 67.0339 50.1818 67.6364Z" fill="#572908"/>
<path d="M57.1818 67.9091C57.1818 68.9132 56.3677 69.7272 55.3636 69.7272C54.3594 69.7272 53.5454 68.9132 53.5454 67.9091C53.5454 66.9049 54.3594 66.0909 55.3636 66.0909C56.3677 66.0909 57.1818 66.9049 57.1818 67.9091Z" fill="#572908"/>
<path d="M63.6364 57.8182C63.6364 58.8223 62.8223 59.6364 61.8182 59.6364C60.814 59.6364 60 58.8223 60 57.8182C60 56.814 60.814 56 61.8182 56C62.8223 56 63.6364 56.814 63.6364 57.8182Z" fill="#572908"/>
<path d="M61.5456 70.4545C61.5456 71.2579 60.8943 71.9091 60.091 71.9091C59.2877 71.9091 58.6365 71.2579 58.6365 70.4545C58.6365 69.6512 59.2877 69 60.091 69C60.8943 69 61.5456 69.6512 61.5456 70.4545Z" fill="#572908"/>
</svg>
